<svg xmlns="http://www.w3.org/2000/svg" width="301" height="101" stroke="#000" stroke-linecap="round" stroke-linejoin="round" fill="#fff" fill-rule="evenodd"><style><![CDATA[.B{fill-rule:nonzero}]]></style><rect x=".5" y=".5" width="300" height="100" fill="#007fff" rx="15" fill-opacity=".64"/><g stroke="none" class="B"><path d="M133.9075 31.0247h38.7037v14.0687h-22.5187v14.0683h22.5187v14.0686h-38.7037zm46.4444 0h38.7037v12.2335h-22.5187v2.4466h22.5187v28.1374h-38.7037V60.997h22.5186v-2.4471h-22.5186zm46.4444 0H265.5v12.2335h-22.5187v2.4466H265.5v28.1374h-38.7037V60.997h22.5186v-2.4471h-22.5186z" fill="#000"/><path d="M108.9355 86.9912L73.6258 95.5l-35.2127-8.4967L30.5662 10.5h86.2247z" fill="#264de4"/><path d="M73.6786 88.9964l28.5324-6.876 6.7125-65.3651H73.6786z" fill="#2965f1"/><path d="M73.6787 45.1292H48.5552l.9676 9.3826h24.1559zm-.0375-18.991h-27.03l.9813 9.3827h26.0858v-9.3827zm-.0099 43.3702l-12.022-2.8217-.7683-7.4833h-5.8416-4.9944l1.5121 14.7322 22.1119 5.336.0499-.012v-9.7624z" fill="#ebebeb"/><path d="M88.8518 35.5209l-.9822 9.6083H73.6413v9.3825h13.2924l-1.2534 12.1687-12.039 2.8248v9.7615l22.1293-5.331.1622-1.585 2.5366-24.7021.2632-2.5194 1.9492-18.991H73.6413v9.3827z"/></g></svg>