<svg xmlns="http://www.w3.org/2000/svg" width="301" height="101" stroke="#000" stroke-linecap="round" stroke-linejoin="round" fill="#fff" fill-rule="evenodd"><rect x=".5" y=".5" width="300" height="100" rx="15" fill-opacity=".68"/><path d="M108.7342 79.0048v-47.556h2.6103v7.4806c.3081-.3315.5932-.6841.8527-1.0545 2.1798-4.4697 6.7787-7.2906 11.8008-7.2348 5.952-.1755 10.7895 2.0016 13.632 7.2348 3.6701 6.5969 3.8819 14.541.5679 21.3192-2.6482 5.8647-9.1902 8.7807-16.1928 7.7097-4.4289-.3719-8.3639-2.9375-10.4522-6.814v18.913zm2.6103-30.7335l.585 5.5843c1.0312 6.3559 4.8354 10.1117 10.8065 10.8174 5.7825.9395 11.4312-2.2888 13.4904-7.7097 2.3229-5.4685 2.1515-11.6594-.4594-17-2.1895-4.8411-7.36-7.6642-12.6742-6.9192-4.9763.3575-9.1776 3.7896-10.468 8.5516-.5557 2.1984-.9837 4.4267-1.2803 6.6736zm82.4967 6.4634c-.8188 6.9257-6.7014 12.1817-13.758 12.2929-10.9483.5447-16.0866-6.6388-16.9026-14.9283-.568-4.5016.1716-9.0698 2.1317-13.172 2.8009-5.7742 9.0635-9.0919 15.4816-8.2006 6.0974.512 11.1797 4.8195 12.6194 10.6956.556 2.6101.9653 5.2488 1.2264 7.9035h-28.7544c-.533 7.5158 3.5542 13.558 9.3482 15.015 7.2163 1.754 13.3841-1.3352 15.6233-8.1142.4972-1.7395 1.4036-1.9853 3.0036-1.4919zm-27.9768-7.8149h25.7192c-.1603-8.0069-5.2066-13.8262-12.0515-13.8922-7.7275-.1238-13.3318 5.4622-13.6677 13.8922zm33.2923 7.9903h2.5211c.1889 3.7412 2.4809 7.0636 5.9359 8.6052 4.3111 1.9169 9.2709 1.7878 13.4744-.3507 2.3162-1.0307 3.7358-3.3798 3.5546-5.8835.1337-2.422-1.3755-4.6377-3.6973-5.4273-2.7734-1.0195-5.7223-1.5807-8.5488-2.4762-2.9403-.8271-5.8153-1.866-8.6028-3.1078-4.5536-2.1957-4.8355-10.7474.3198-13.4547 5.363-2.9902 11.8943-3.0895 17.3484-.2643 3.3287 1.816 5.1686 5.483 4.6216 9.2038h-2.1615c0-.1033-.1965-.194-.1965-.2993-.2675-6.81-6.0607-8.9395-12.2811-8.341-1.8797.2063-3.6611.7675-5.3325 1.5971-2.0586.9289-3.2985 3.0419-3.0908 5.2684.0043 2.2282 1.428 4.2119 3.5544 4.9528 2.7156.9842 5.5982 1.6157 8.4071 2.3875l6.7883 1.7542c3.1585 1.0243 5.3498 3.8675 5.5094 7.1483.5428 3.601-1.3158 7.14-4.603 8.7807-5.9361 3.3182-15.7129 2.441-20.068-1.7542-2.2283-2.2143-3.4713-5.2208-3.4458-8.341zm60.1114-13.1535h-2.3642c0-.3158-.1256-.619-.1611-.8604-.0782-3.6089-2.7028-6.671-6.2929-7.3404-3.286-.9312-6.7914-.7644-9.971.4746-2.5826.7303-4.3705 3.0541-4.3904 5.7079-.0929 2.6159 1.6899 4.9349 4.2647 5.5491l10.8066 2.7404a30.401 30.401 0 0 1 3.4461 1.036c3.4468 1.2383 5.7855 4.3998 5.8903 8.013.1058 3.6203-2.0517 6.9324-5.4305 8.337-5.0718 2.2764-10.8801 2.334-15.997.159-4.2624-1.8159-6.9294-6.0622-6.6837-10.642h2.3101c.8692 4.1375 3.7447 7.5837 7.6904 9.214s8.451 1.2298 12.0389-1.065c2.1986-1.1293 3.5313-3.4192 3.413-5.8647.11-2.4238-1.4214-4.6251-3.7515-5.3923-2.7734-1.0192-5.7224-1.562-8.5489-2.4762a63.466 63.466 0 0 1-8.6551-3.0728c-4.4445-2.1605-4.7998-10.642.2674-13.3475 5.4352-3.1189 12.128-3.1926 17.6321-.1939 3.1626 1.8648 4.9126 5.3984 4.4613 9.0098zM104.4373 66.1691c-1.9264.7196-4.0928-.0943-5.0479-1.8963L90.199 51.7156l-1.3328-1.754-10.6638 14.3297c-.8998 1.7239-2.9545 2.5205-4.7998 1.8613l13.7385-18.2113-12.7826-16.4552c1.8966-.6769 4.0111.0577 5.065 1.754l9.5247 12.7117 9.5801-12.6621c.9064-1.6955 2.9556-2.4507 4.7643-1.7561l-4.9598 6.5022-6.7192 8.6405c-.3774.3328-.593.8087-.593 1.3083s.2156.9756.593 1.3082l12.7965 16.8763zm58.3354-34.8584v2.4762c-3.6351-.2355-7.202 1.0602-9.8166 3.5668s-4.0341 5.9894-3.9052 9.5866q0 8.6755 0 17.351v1.9665h-2.5419V31.4653h2.5057v7.1299c3.0747-5.2004 7.8206-7.1299 13.7748-7.2701zM40.5043 47.7143l1.1189-5.4625c3.0747-10.8009 15.6066-15.2955 24.2289-8.6051 5.0478 3.9166 6.3071 9.4656 6.0607 15.7184H43.4716c-.4591 11.1682 7.6975 17.9122 18.1302 14.4702 3.4373-1.2382 6.0252-4.0612 6.8777-7.5695.5511-1.754 1.4616-2.0552 3.1286-1.5477-.5632 4.3319-3.1051 8.1704-6.8961 10.4152-6.3435 3.4271-14.1977 2.4354-19.4645-2.458-2.5394-2.8208-4.0732-6.3867-4.372-10.1529 0-.6191-.2084-1.1968-.3542-1.7541q-.0213-1.562-.0213-3.054zm3.0038-.7554h25.7193c-.1615-8.0956-5.3326-13.8386-12.2288-13.8921-7.6778-.1032-13.1717 5.514-13.51 13.857z" stroke-linejoin="miter" fill="#000" fill-rule="nonzero" stroke="#a2a2a2"/></svg>