<svg xmlns="http://www.w3.org/2000/svg" width="301" height="101" stroke="#000" stroke-linecap="round" stroke-linejoin="round" fill="#fff" fill-rule="evenodd"><rect x=".5" y=".5" width="300" height="100" fill="#ff8200" rx="15" fill-opacity=".75"/><g stroke-linejoin="miter" stroke-linecap="butt" fill-rule="nonzero"><path d="M186.1234 41.3209c-3.794 0-6.6247 1.5742-6.6247 5.363 0 2.8274 1.8631 4.8352 6.4176 4.8352 3.8612 0 6.4847-1.9229 6.4847-4.954 0-3.4404-2.3437-5.2442-6.2776-5.2442zm-7.5894 26.7487c-.8991.9312-1.7943 1.9227-1.7943 3.063 0 2.328 3.5159 3.0314 8.3476 3.0314 4.0025 0 9.4536-.2357 9.4536-3.3802 0-1.866-2.6223-1.9829-5.9368-2.1583l-10.0452-.5804zm20.4246-26.5754c1.2389 1.344 2.5536 3.2045 2.5536 5.8872 0 6.4657-6.027 10.2546-14.6962 10.2546-2.2329 0-4.186-.2357-5.4542-.5244l-2.2766 3.0635 6.764.3488c11.9419.6405 18.9732.9347 18.9732 8.6804 0 6.7033-6.9642 10.4846-18.9732 10.4846-12.4895 0-17.2483-2.6805-17.2483-7.3045 0-2.6202 1.3846-4.0208 3.7954-5.9453-2.2779-.8108-3.0363-2.2699-3.0363-3.8417 0-1.2819.7584-2.4507 2.0016-3.5346l4.2777-3.4969c-3.3815-1.3949-5.938-4.4296-5.938-8.7183 0-6.7011 5.2458-11.3026 15.8043-11.3026 2.9687 0 4.7631.2319 6.3505.5842h13.4558v4.952l-6.3505.4075m18.4863-10.5848c-3.9065 0-6.2095-1.9224-6.2095-5.2475s2.2771-5.1275 6.2095-5.1275c4.0021 0 6.2793 1.8096 6.2793 5.1275s-2.2772 5.2475-6.2766 5.2475zm-8.9288 35.0204v-4.5996l3.5226-.407c.9648-.1168 1.1048-.2923 1.1048-1.1686V42.6216c0-.6412-.2071-1.048-.8992-1.2254l-3.7282-1.1067.7591-4.716h14.2855v24.1847c0 .9333.0671 1.0481 1.1061 1.169l3.5155.407V65.93h-19.6724m46.987-2.262c-2.9689 1.2252-7.317 2.3563-11.2496 2.3563-8.2143 0-11.3177-2.7936-11.3177-9.3818V41.3737c0-.3488 0-.5842-.5583-.5842h-4.7982v-5.184c6.0707-.5657 8.4888-3.1483 9.2469-9.5006h6.5561v8.2752c0 .4051 0 .5843.5535.5843h9.7324v5.8251h-10.308v13.902c0 3.4401.9691 4.7784 4.6874 4.7784 1.933 0 3.9064-.4071 5.5898-.9312l1.8641 5.1275" stroke="#fff" fill="#362701"/><path d="M138.4441 46.9384L97.0765 12.0088c-2.3792-2.0116-6.243-2.0116-8.6269 0l-8.5872 7.2536 10.8928 9.199c2.5337-.7219 5.4351-.2355 7.4491 1.4643 1.9614 1.6592 2.63 4.1184 1.7209 6.3341l10.5006 8.8673c2.511-.7392 5.4685-.2588 7.4994 1.4513 1.8375 1.5478 2.5554 3.8065 1.8834 5.9233s-2.6321 3.7688-5.1395 4.333-5.1781-.0375-7.0117-1.5872c-2.1312-1.802-2.6561-4.4486-1.5781-6.6674l-9.766-8.2469v21.7627c.6702.2905 1.344.673 1.9202 1.1594 2.8347 2.3937 2.8347 6.2735 0 8.671-1.361 1.1506-3.2073 1.7972-5.1332 1.7972s-3.7721-.6466-5.1328-1.7972c-2.835-2.3996-2.835-6.2773 0-8.671.6803-.5742 1.488-1.0289 2.3772-1.3386V39.9562c-.8371-.3015-1.6742-.7427-2.3772-1.3195-2.0841-1.7588-2.7015-4.407-1.5626-6.7013l-10.741-9.0726-28.3827 23.9114c-2.3751 2.0154-2.3751 5.2726 0 7.2877l41.3695 34.9297c2.3795 2.0111 6.2435 2.0111 8.627 0l41.1664-34.7656c2.3749-2.0153 2.3749-5.2728 0-7.2876" fill="#f03c2e" stroke-width="1.5"/></g></svg>