<svg xmlns="http://www.w3.org/2000/svg" width="301" height="101" stroke="#000" stroke-linecap="round" stroke-linejoin="round" fill="#fff" fill-rule="evenodd"><rect x=".5" y=".5" width="300" height="100" fill="#ff8200" rx="15" fill-opacity=".64"/><g stroke="none" fill-rule="nonzero"><path d="M30.5 31.4921h12.7367v12.553h11.648v-12.553h12.7367v38.0157H54.8847V56.7987h-11.648v12.7091H30.5V31.4921zm53.8672 12.6087H73.1341V31.4944h35.1619v12.6064H97.0789v25.4113H84.3422V44.1008zm29.5108-12.6087h13.2795l8.1695 13.3781 8.1601-13.3781h13.2619v38.0157h-12.6833V50.6627l-8.7594 13.5184h-.2188L126.36 50.6649v18.845h-12.4599zm49.226 0h12.7359v25.4738H193.75v12.5664h-30.6436z" fill="#000"/><path d="M199.8074 10.5h70.6925l-6.4397 71.9911L235.1121 90.5l-28.8696-7.9977z" fill="#e44d26"/><path d="M258.5524 77.9092l5.5036-61.5207h-28.8766v67.9911z" fill="#f16529"/><path d="M223.4482 43.0932l-.8088-9.0435h12.54v-8.8295h-22.1885l2.3862 26.7047h19.8023v-8.8295zm-7.6998 13.2486l1.2403 13.8685 18.1281 5.0211.0404-.0112V66.034l-.0382.0112-9.8313-2.6755-.6305-7.0458h-4.7883z" fill="#ebebeb"/><path d="M255.4822 45.4609l.2165-2.3722H235.128v8.8292h10.8978l-1.0283 11.454-9.8695 2.6576v9.1861l18.144-5.0165.1343-1.4941zm-20.3343-11.4112h21.3778l.793-8.8519h-22.1708v8.8072z"/></g></svg>