<svg xmlns="http://www.w3.org/2000/svg" width="301" height="101" stroke="#000" stroke-linecap="round" stroke-linejoin="round" fill="#fff" fill-rule="evenodd"><rect x=".5" y=".5" width="300" height="100" rx="15" fill="#f90" fill-opacity=".76"/><g stroke-linejoin="miter" fill-rule="nonzero"><path d="M54.8226 76.2119s-4.5385 1.9865 3.1595 2.5553c9.2468.8503 14.2039.7096 24.4626-.7095 0 0 2.7613 1.275 6.5113 2.2731-23.0835 7.0956-52.28-.4252-34.1308-4.115zm-2.9589-9.2244s-4.9316 2.698 2.7612 3.2651c10.061.7096 17.9799.8502 31.5674-1.1343 0 0 1.7724 1.419 4.7337 2.1287-27.8172 5.961-58.989.567-39.0623-4.2576zm54.4532 16.1796s3.3545 1.9864-3.75 3.5476c-13.2177 2.8386-55.4371 3.6903-67.2755 0-4.1429-1.2747 3.7502-3.141 6.3136-3.4053 2.5686-.4251 3.9454-.4251 3.9454-.4251-4.5363-2.2728-30.1857 4.6841-13.0228 6.6521 47.151 5.5341 86.0157-2.4131 73.7842-6.3859zM56.9905 57.3366s-21.5038 3.6901-7.6954 4.9667c5.9181.5675 17.5585.4251 28.4082-.1424 8.8768-.5671 17.7562-1.7034 17.7562-1.7034s-3.1592.9938-5.3271 1.9863c-21.8994 4.1153-63.9207 2.2727-51.8844-1.9863 10.2586-3.5479 18.7425-3.1412 18.7425-3.1412zm38.4716 15.4698c22.0947-8.2322 11.836-16.1795 4.734-15.1855-1.7724.2848-2.5685.5675-2.5685.5675s.5906-.85 1.9725-1.1346c14.0064-3.5477 25.0561 10.6433-4.5386 16.1795 0 0 .1978-.1424.3955-.425zM59.1635 95.2296c21.3061.9941 53.8624-.5671 54.6484-7.8053 0 0-1.5771 2.8383-17.5586 4.967-18.1493 2.4134-40.6396 2.1288-53.8624.5673 0 0 2.7612 1.7039 16.7726 2.2729z" fill="#007fff" stroke-width=".5"/><path d="M82.0465 10.5s12.2314 8.9434-11.6406 22.425c-19.1355 10.9278-4.3664 17.1735 0 24.2692-11.2449-7.2377-19.3334-13.624-13.811-19.5866C64.686 28.8084 86.9756 24.5508 82.0439 10.5zm-6.3134 40.7333c5.7203 4.684-1.5795 8.9435-1.5795 8.9435s14.5996-5.3957 7.8903-12.0664c-6.1129-6.3861-10.8494-9.509 14.7949-20.1543 0 0-40.4441 7.2381-21.1082 23.2754z" fill="#f58219"/><path d="M202.1595 68.0815V46.5048c0-5.5065-4.2843-9.2464-14.9952-9.2464-6.1209 0-11.3273 1.1009-15.9146 2.4207l1.5307 3.9633c3.3647-.8812 7.6542-1.7611 12.2417-1.7611 5.8152 0 8.5688 1.7611 8.5688 5.2849v2.8642h-3.036c-14.6922 0-21.4218 3.9634-21.4218 10.3479 0 5.2843 4.5899 8.3666 12.8531 8.3666 5.2038 0 9.1824-1.7611 12.853-3.9634l.6111 3.3018h6.7298zm-8.5737-7.0436c-3.0568 1.9807-6.4266 3.0821-9.4885 3.0821-3.9812 0-6.4262-1.761-6.4262-4.8414s2.4478-5.2848 12.2416-5.2848h3.6731v7.0459zm37.3363 7.0454h-10.7108l-12.8505-30.1617h9.1825l7.9574 18.4964 1.8365 5.5065c3.9812-7.9271 7.0378-16.0721 8.263-23.9975h9.1798c-2.4478 9.908-6.7295 20.6957-12.8528 30.1618zm49.578 0V46.5048c0-5.5065-4.2843-9.2464-15.0004-9.2464-6.1208 0-11.3221 1.1009-15.9146 2.4207l1.225 3.9633c3.673-.8812 7.9574-1.7611 12.5475-1.7611 5.8152 0 8.5687 1.7611 8.5687 5.2849v2.8642h-3.0568c-14.6919 0-21.4214 3.9634-21.4214 10.3479 0 5.2843 4.2843 8.3666 12.5473 8.3666 5.5095 0 9.488-1.7611 13.1585-3.9634l.6114 3.3018h6.7297zm-8.5687-7.0454c-3.0568 1.9807-6.4265 3.0821-9.4883 3.0821-3.9811 0-6.4266-1.761-6.4266-4.8414s2.448-5.2848 12.242-5.2848h3.6729v7.0459zM159.614 73.1463c-2.4478 2.6426-6.1208 4.6233-10.7106 5.7247l-3.9814-3.522c3.0617-1.3212 6.1209-3.3019 7.3461-5.0629 1.2251-1.5412 1.5307-3.7436 1.5307-8.8069V27.1303h9.1826v33.9076c0 6.8257-.9194 9.4661-3.3649 12.1084z" stroke="#fff" fill="#4e7896"/></g></svg>