<svg xmlns="http://www.w3.org/2000/svg" width="301" height="101" stroke="#000" stroke-linecap="round" stroke-linejoin="round" fill="#fff" fill-rule="evenodd"><style><![CDATA[.B{fill-rule:nonzero}.C{stroke-linejoin:miter}]]></style><path d="M.5 15.5c0-8.31 6.69-15 15-15h270c8.31 0 15 6.69 15 15v70c0 8.31-6.69 15-15 15h-270c-8.31 0-15-6.69-15-15z" fill="#00991a" fill-opacity=".77"/><g stroke="#262626" class="B C"><path d="M43.1811 10.7292l2.7296 4.262c.5942.7686 1.2861 1.4825 2.0634 2.1287 2.2866 1.8985 4.4624 3.8878 6.4108 6.0192 4.6278 5.0457 7.7505 10.6488 9.9818 16.7157 1.3374 3.7046 2.0637 7.5009 2.1186 11.3429.2256 11.483-4.5174 21.3435-14.1087 29.5391-1.5541 1.2991-3.2325 2.4918-5.0185 3.5653-.9514 0-1.3949-.6238-1.7856-1.1579-.751-1.0392-1.1719-2.1764-1.3947-3.3324-.3354-1.3888-.5584-2.7777-.4458-4.2143v-.6489c-.055-.1394-.8913-63.893-.5583-64.2175z" fill="#599636"/><path d="M43.1813 10.5918c-.1127-.187-.2254-.0456-.3356.0458.0551.9259-.3354 1.7592-.9513 2.547-.6688.79-1.5628 1.3886-2.4544 2.0376-4.9634 3.5653-8.8649 7.8711-11.9903 12.6861-4.1269 6.4828-6.3005 13.4263-6.9117 20.7427-.2754 2.6403 1.0017 11.9461 2.0085 14.6302 2.7296 7.1314 7.6379 13.1021 14.0236 18.2872 1.5628 1.2475 3.2355 2.4073 4.9635 3.5177.5008 0 .5584-.3697.6687-.6484.2184-.5868.3859-1.1913.5007-1.8069.501-2.3139.7815-4.6296 1.1144-6.944l-.6134-65.095z" fill="#6cac48"/></g><path d="M45.9183 87.1257c.1127-1.0644.7514-1.9443 1.3948-2.8235-.6686-.2283-1.1719-.6941-1.5627-1.2056-.3355-.4638-.6133-1.0399-.8361-1.5282-.7816-1.9443-.9518-3.9814-1.1721-5.9734v-1.2056c-.2753.1871-.3356 1.7591-.3356 1.992-.1676 2.1287-.5008 4.2143-1.0017 6.2494-.1676.8315-.2756 1.6676-.8915 2.4074 0 .0936 0 .1871.055.3245 1.0017 2.4532 1.2822 4.9541 1.4524 7.5009v.9257c0 1.1102-.055.8792 1.0594 1.2469.4456.1393.9517.187 1.3948.4638.3356 0 .3908-.2283.3908-.4161l-.1677-1.5275v-4.2627c-.0553-.7398.1125-1.4816.2252-2.1764z" stroke="none" fill="#c2bfbf" class="B"/><path d="M88.2668 67.7621v4.4096a2.566 2.566 0 0 0 .0358.5222c.0689.522.4551.8402 1.0228.9867.5296.1157 1.0678.2033 1.6109.2612.3147.0295.4192.1445.4553.4249.0359.9868-.0691 1.1035-1.2221 1.0441-2.6902-.1162-5.383-.1444-8.0731 0h-.2556c-.8389.0301-.9081-.0292-.9081-.726 0-.1167.0363-.2612.0363-.3776 0-.2125.1735-.3188.4191-.3188.5626-.0569 1.0842-.174 1.6111-.261.7337-.1442 1.1506-.522 1.222-1.1317.1027-.6665.1027-1.3625.1027-2.0316l.0355-7.7742c.0236-.4602-.2754-.8903-.7668-1.1035-.6328-.2921-1.3013-.5253-1.995-.6968-.2095-.0573-.4192-.0849-.5931-.1738-.5114-.2038-.5244-.5795-.0355-.8134.1735-.0849.3833-.1444.593-.1739 2.1207-.26 4.2045-.6972 6.2191-1.3057.4192-.117.5239-.0849.5624.2614.0357.2119 0 .4665-.0359.6665-.069.3778-.069.7534-.069 1.1037 0 .1444.0358.2908.2095.3779s.3505 0 .5117-.085c.7341-.4665 1.4677-.8999 2.2708-1.2738 1.1505-.522 2.3779-.9871 3.7077-1.131 1.611-.1745 3.0046.1737 4.2294 1.0442.5064.3762.9524.8048 1.3273 1.2757.3503.4246.3834.4352.8387.1444 1.3297-.8131 2.7258-1.5371 4.2294-2.0592 1.5726-.552 3.181-.6369 4.7866-.1738 1.6419.4922 2.7621 1.45 3.427 2.7556.5624 1.0442.8028 2.1227.8028 3.248v7.774c0 .5227.2556.8494.8746 1.1044.6651.2123 1.3987.318 2.0967.4352.4552.085.4552.085.4552.4672-.0687.9548-.1738 1.0143-1.2938.9548a90.743 90.743 0 0 0-8.4205 0c-.5626.0299-.5626.0299-.5935-.4353v-.1438c-.0356-.786-.0356-.786.8747-.9554l.9076-.2038c.6333-.1239 1.0815-.5918 1.0845-1.1319l.1021-2.176-.0691-5.685c-.0268-.508-.1561-1.0082-.3832-1.48-.8748-1.7704-2.7951-2.4076-4.6494-2.2331-1.3983.1163-2.6207.5797-3.7741 1.2482-.2453.1444-.4193.3181-.3835.6089.3144 1.8578.1024 3.7158.1403 5.5709v4.0337c0 .726.3509 1.0744 1.1895 1.2481l1.6109.2908c.2454.0302.3834.117.3834.3483v.2124c-.0357.8129-.1021.849-1.0839.8411-2.7953-.117-5.5927-.085-8.3518 0-.9461.0292-1.0229-.0575-.9794-.8496.0359-.4673.1025-.4928.6291-.5797l1.1507-.1737c1.023-.1747 1.3989-.4928 1.468-1.3931l.1021-1.9442-.0688-5.8321c-.0691-.726-.2559-1.4224-.7339-2.0891-.6982-1.0741-1.7901-1.6239-3.286-1.6833-1.5038-.0849-2.8305.3777-4.0915.9553-.8744.425-1.2582.928-1.1892 1.7705v4.2356zm65.8382.176v4.091a7.307 7.307 0 0 0 .0691.8706c.0309.3958.3726.7272.8386.8127.6031.1461 1.2243.2341 1.8513.2614.3505.0293.4197.1445.4552.3778v.2038c-.0355 1.0149-.1741 1.1319-1.363 1.0744-2.6595-.1444-5.3111-.1171-7.9679 0l-1.0226.0293c-.21 0-.2557-.0847-.3147-.2037a2.463 2.463 0 0 1 0-1.2182c.0355-.1745.1738-.2122.3836-.2613l1.4318-.2125c.8748-.1738 1.1892-.467 1.2224-1.2188l.1024-2.4364v-7.138c0-.5221-.2455-.8401-.8031-1.074-.6288-.291-1.2937-.4922-1.9944-.6962-.2096-.0574-.4194-.1169-.5934-.2038-.4552-.2614-.5113-.6371-.069-.9279.1984-.1349.4422-.2166.6982-.2332 2.2375-.2907 4.4033-.6967 6.5002-1.3926.2455-.0849.3503-.0301.4549.1439a.82.82 0 0 1 .1024.5796l-.1024 1.363c0 .1745-.102.4247.0692.4927.2097.1164.3504-.1445.5242-.2125 1.032-.7187 2.1717-1.3226 3.3907-1.7983 1.0842-.4245 2.1993-.6959 3.46-.6364 2.3425.1163 4.0196 1.1037 5.1014 2.8146.5624.9003.803 1.8853.9079 2.9025l.1022 2.1226.0358 6.4117c.0357.4921.2453.8128.8388.9874.6148.17 1.2461.2962 1.8872.3777.5625.0569.5931.1445.6289.5795v.1443c-.0694.9868-.1406 1.0144-1.3295.9555a87.622 87.622 0 0 0-7.8275 0c-.3503.0293-.6982 0-1.0227.0293-.21 0-.3503-.0293-.3838-.2038-.0691-.3777-.1406-.7534-.0356-1.1612.0356-.1738.1403-.2613.3833-.2908l1.611-.2124c.5625-.1167.8746-.4245.9461-.8489l.0691-.8136-.0357-6.0627c0-.6967-.036-1.393-.2098-2.089-.4194-1.4859-1.7822-2.5481-3.6311-2.6963-1.6111-.1444-3.0686.204-4.4034.928-.6649.3484-.946.8403-.946 1.45v4.3814c0-.0849 0-.0849.0358-.0849z" stroke="#fff" fill="#47474a" class="B"/><path d="M256.4563 59.727c-.3839-2.1189-1.3297-4.0041-2.9713-5.658-1.4304-1.4607-3.2821-2.5982-5.383-3.3071-2.199-.7538-4.5441-.9874-6.9196-1.0449-.9791-.0295-14.3273.1445-15.3067 0-.2453-.0295-.4195.03-.5627.2038-.1738.2124-.3503.4352-.455.667-.4195.7854-.4195.7259.5932.8406.8387.117 1.6415.1739 2.4471.3776.734.2039 1.2581.5522 1.4321 1.2187.069.3184.1405 10.5299.1405 15.2898l-.1405 3.3966c-.036.2615-.0692.522-.174.7536-.1408.3481-.3837.637-.803.7854-.4615.1802-.9592.2884-1.468.3188-.9459.0851-1.0839.1164-1.3986.9868l-.1021.3189c-.0691.3776-.036.4352.4192.4352l10.4485.0849 4.0914-.0576 2.8308-.2907c3.2143-.4928 6.0807-1.5963 8.5252-3.365 1.3968-1.0241 2.5367-2.2661 3.3549-3.6558.9796-1.6238 1.3989-3.3967 1.504-5.1927.1738-1.0144.102-2.0595-.1024-3.1036zm-5.0683 4.1184c-.1406 1.8578-.593 3.6563-1.7465 5.2799-1.4676 2.1185-3.5649 3.5987-6.4644 4.1189-1.2581.212-2.5164.3182-3.8356.1737-.9461-.0849-1.8513-.1737-2.7261-.4352-1.5727-.4672-2.1325-1.2735-2.1657-2.5474l-.0356-17.4936c0-1.0442.5624-1.2736 1.4677-1.3056 1.3628-.0848 2.7616-.0567 4.1245.0576 1.4509.1169 2.8745.4026 4.2297.8491 1.0061.3481 1.9387.8286 2.7615 1.4223 1.8872 1.3376 3.1449 3.0152 3.8356 4.9891.5626 1.5964.6647 3.2204.5626 4.8449zm34.112 2.8453c0-.1746 0-.3191-.0358-.4928-.3145-1.5964-1.3296-2.8151-2.8997-3.743-1.0126-.609-2.166-1.0149-3.3549-1.3057-.2098-.0571-.3839-.1166-.5933-.1444.0359-.1443.1405-.1738.2454-.2038.698-.2909 1.3629-.6091 1.9562-1.0443 1.0843-.7533 1.7901-1.6832 2.1661-2.8151.2097-.609.2097-1.2187.1403-1.8577-.1153-1.5137-1.0542-2.9024-2.5519-3.7725-1.6108-.9871-3.4957-1.3926-5.4518-1.4223-3.7743-.0571-7.5816 0-11.3535 0-1.0841 0-2.1661.0572-3.2859-.0845-.2097-.0301-.5115-.085-.6647.1162-.2563.3785-.5628.7542-.665 1.1895-.0357.2034.0358.3181.3147.3475l2.4112.2911c.946.1166 1.611.5518 1.6776 1.2485a10.241 10.241 0 0 1 .102 1.4501l-.0692 5.424-.0355 10.7332c0 .6372-.1024 1.249-.2456 1.8853-.0702.4131-.4253.7542-.9076.8704-.6983.1746-1.3629.3483-2.097.3483-.4039-.0321-.7807.1731-.9078.4928-.1406.2607-.2556.5518-.3144.8128-.0691.3483.0359.4673.4553.4248.3146-.03 11.8469.204 14.0129.0295 1.294-.1163 2.557-.2608 3.8433-.5793 2.1991-.5797 4.2296-1.4223 5.8353-2.8449 1.33-1.1613 2.0968-2.5536 2.166-4.1782.1023-.3778.1023-.7535.1023-1.1613zm-16.9485-11.8892l.1022-2.3205c0-.435.2098-.6363.7339-.7259.8388-.1443 1.6775-.085 2.516-.0572.8391.0572 1.642.1445 2.4804.3481 1.5345.3783 2.7261 1.1044 3.4267 2.3203.3182.5536.4847 1.1577.4884 1.771.036.8128-.0359 1.5963-.4192 2.3776-.5934 1.074-1.5346 1.7705-2.8997 1.9744s-5.2422.1171-5.8353.1171c-.5244 0-.5627-.0576-.5627-.4928v-2.7321c-.0825-.8498-.0942-1.7032-.0358-2.5545zm11.3535 15.6083c-.593 1.3056-1.6773 2.2076-3.2141 2.6962-.8389.2609-1.6776.4244-2.5574.378-1.0839-.0302-2.1657 0-3.2476-.1744-1.4677-.2607-2.1324-1.422-2.2374-2.2631-.174-1.4793-.0691-2.9888-.1021-4.0906V63.126c0-.4673.0691-.6093.6647-.6093l3.2858.0297 2.2375.2124c1.5727.2907 3.0045.7854 4.1249 1.7984.9076.8128 1.3989 1.7975 1.5034 2.8718.1026 1.0148.0358 2.0023-.4195 2.9595z" fill="#c2bfbf" stroke-width="1.0211" class="B C"/><path d="M191.1142 61.669l.9077.117c.9795.0293 2.1328-.2615 2.4805-1.3925.192-.5406.192-1.1154 0-1.656-.2098 0-.3146.1443-.4195.2038-.5241.3478-1.1173.5517-1.7464.6092-1.2582.1171-2.5162.0576-3.7386-.3183l-1.7135-.4927c-1.1945-.3248-2.4523-.4619-3.7077-.4032-1.7822.1164-3.4594.6091-5.0322 1.3056-1.6776.7535-2.864 1.8853-3.4268 3.4243-.3143.8999-.3503 1.8256-.2095 2.7556.3503 2.1185 1.6776 3.5985 4.0532 4.3816.1406.0299.2453.0847.3833.1167.3147.1445.3504.2908.0691.4928l-.8745.4921-2.0967 1.0744c-.5242.2612-.5933.4671-.4196.9278.2082.542.5955 1.0247 1.1177 1.3924.4795.3416 1.0224.6166 1.6084.8135.3834.1445.3834.2123.0355.4669l-1.9942 1.1891c-.6648.4242-1.3298.8488-1.8873 1.3924-.7872.6995-1.1021 1.6793-.8386 2.6113.2597 1.0068.8952 1.9209 1.8152 2.6112.9092.6986 2.014 1.197 3.2146 1.4501 1.956.4671 3.984.4924 5.9758.1738 2.8642-.4353 5.3701-1.486 7.3392-3.2777 1.3627-1.1887 2.1659-2.5813 2.2374-4.2458.1576-1.9881-1.4386-3.7787-3.7744-4.2355l-1.8871-.2908-5.7665-.4248c-.629-.0293-1.2577-.1162-1.7819-.3776-.665-.3484-.839-1.0149-.4193-1.45.3143-.3183.6976-.5221 1.1888-.5517l1.1174-.0854c2.21-.1864 4.2846-.9712 5.9045-2.233.8649-.6646 1.4832-1.5206 1.7821-2.4669.4195-1.2487.4195-2.5477.0692-3.8213-.1023-.3184-.0692-.3483.4192-.2908zm-8.5664 14.4513c.2097.0294.4194 0 .6289 0 1.4681.0573 2.9715.1444 4.4034.467a10.364 10.364 0 0 1 1.3632.4352c1.3985.6367 1.9226 1.741 1.7465 2.9297-.2097 1.3056-1.0844 2.2334-2.4472 2.8445-.9078.4247-1.923.6095-2.9711.6965-.3838.0294-.7342 0-1.1177 0-1.2224.0294-2.4115-.0849-3.5647-.4927-.803-.2609-1.4681-.6366-2.0612-1.1611-1.2222-1.0148-1.7899-2.8725.0358-4.3815 1.1174-.8495 2.3781-1.4503 3.9841-1.3376zm3.9838-9.0524c-.7337 1.537-2.3419 2.002-3.9478 1.7984-1.4679-.1746-2.552-.8411-3.2477-1.9448-.9076-1.4801-1.1507-3.0149-.6291-4.6134.3837-1.1886 1.2582-2.0892 2.7949-2.2928 1.9565-.291 3.8358.2911 4.8228 1.9152.5113.7854.734 1.7407.734 3.1036-.036.5517-.1743 1.3056-.5244 2.0319zm-44.0285-1.9743c-.3144-1.5669-1.0124-2.9894-2.3064-4.178-1.923-1.771-4.3675-2.5479-7.1291-2.5538-2.4116-.03-4.6796.5515-6.7098 1.5963-1.9964.9916-3.4592 2.5797-4.0893 4.4391-.593 1.6834-.5624 3.3967-.1021 5.1055 1.2223 4.5858 5.4878 6.5561 10.5868 6.2674 1.5033-.0851 2.9353-.4928 4.2956-1.045 2.0279-.7855 3.4957-2.0315 4.5083-3.6853.8031-1.3628 1.1507-2.8148 1.1178-4.4687l-.1741-1.48zm-4.9608 6.4406c-.5105 1.3342-1.9238 2.291-3.6002 2.4375-1.5344.174-2.9713-.1445-4.2628-.9-.9323-.5693-1.6871-1.3154-2.2017-2.176-1.4319-2.4373-1.6773-4.989-.946-7.6003.2353-.8083.7446-1.5434 1.4677-2.1186 1.294-.9873 2.795-1.2187 4.475-.9278 1.6109.2908 2.8305 1.0147 3.8356 2.1185s1.4679 2.378 1.7465 3.7155c.1406.6666.1406 1.3627.1738 1.7978 0 1.3927-.1405 2.5478-.6646 3.6562zm81.3168-6.2071c-.2557-1.6834-1.0127-3.2208-2.4473-4.4965-1.8871-1.7112-4.3342-2.4374-7.0576-2.4667-2.3423-.0299-4.5083.5221-6.5003 1.4793-2.2374 1.1043-3.7742 2.6687-4.3675 4.7872-.7084 2.3117-.4114 4.7565.8385 6.9038 1.1508 2.0318 3.1097 3.3374 5.6975 3.9171 2.8642.6369 5.5924.3482 8.2465-.7262 2.3067-.9271 3.9483-2.3774 4.8919-4.352.5628-1.1612.7673-2.4074.8029-3.8593.0362-.2612-.0356-.7261-.1023-1.1888zm-4.823 5.8314c-.5624 1.5671-1.7465 2.5819-3.7382 2.8151-1.4679.1744-2.8643-.1165-4.1248-.8129-1.0843-.609-1.8514-1.4226-2.4114-2.378-.6289-1.0148-.9792-2.0885-1.1173-3.1905-.2098-1.3628-.2098-2.6962.1735-4.0613.0734-.2692.1785-.5313.3149-.7831.9796-2.0317 3.1449-2.9594 5.6972-2.4948 1.7133.3188 3.0047 1.1044 3.9838 2.293.9463 1.1611 1.3988 2.4371 1.6109 3.8214.1026.552.141 1.1313.1026 1.6239 0 1.1317-.1026 2.1759-.5116 3.1907z" stroke="#fff" fill="#47474a" class="B"/></svg>