<svg xmlns="http://www.w3.org/2000/svg" width="301" height="101" stroke="#000" stroke-linecap="round" stroke-linejoin="round" fill="#fff" fill-rule="evenodd"><rect x=".5" y=".5" width="300" height="100" rx="15" fill="#739900" fill-opacity=".77"/><g stroke-linejoin="miter" fill-rule="nonzero"><path d="M263.8678 38.8879c-.6577 0-1.2966.1424-1.8627.4784l-17.9004 10.8465c-1.1589.7006-1.8627 2.0237-1.8627 3.4301v21.6546c0 1.4063.7038 2.7266 1.8627 3.4289l4.6749 2.8271c2.271 1.1746 3.1085 1.1556 4.1427 1.1556 3.3629 0 5.2821-2.1408 5.2821-5.8614V55.4832c0-.3021-.2491-.5184-.5324-.5184h-2.242c-.2873 0-.5316.2222-.5316.5184v21.3747c0 1.6494-1.6372 3.3088-4.295 1.9148l-4.8588-2.9905c-.172-.0987-.3049-.2779-.3049-.4784V53.6483c0-.205.1309-.4144.3049-.5173l17.863-10.8081c.1674-.1018.3658-.1018.5314 0l17.8631 10.8081c.1697.1061.304.3059.304.5173v21.6555c0 .2065-.0987.4179-.2661.5184l-17.9005 10.8079c-.158.096-.3694.096-.5315 0l-4.599-2.8717c-.137-.0835-.3239-.0771-.4556 0-1.2702.7552-1.5088.843-2.6983 1.2766-.2931.1061-.7396.2736.1518.7973l6.0048 3.7136c.572.347 1.2088.5182 1.8627.5182.6633 0 1.2905-.1664 1.8627-.5182l17.9006-10.808c1.1578-.7072 1.8625-2.0227 1.8625-3.429V53.6543c0-1.4065-.7047-2.7266-1.8625-3.43l-17.9006-10.8466c-.5612-.336-1.2044-.4784-1.8627-.4784zm4.789 15.4736c-5.0976 0-8.1338 2.2766-8.1338 6.0612 0 4.1019 3.013 5.2348 7.9054 5.7421 5.8527.6015 6.3096 1.5037 6.3096 2.712 0 2.0973-1.593 2.9905-5.3592 2.9905-4.7307 0-5.7705-1.2387-6.1188-3.7134-.0408-.2645-.2352-.4784-.4935-.4784h-2.3248c-.2911.0075-.5254.2528-.5314.5582 0 3.1613 1.6382 6.8991 9.4631 6.8991 5.6643 0 8.9313-2.328 8.9313-6.4207 0-4.0462-2.6384-5.1394-8.133-5.9026-5.5462-.776-6.081-1.1472-6.081-2.5121 0-1.1264.4491-2.6334 4.5612-2.6334 3.6726 0 5.0298.8319 5.5868 3.4302.0484.2435.2533.4434.4939.4434h2.3239c.1433 0 .2813-.0925.3809-.1999.0972-.114.1655-.2435.1521-.3986-.3597-4.4752-3.2031-6.5806-8.9312-6.5806z" fill="#00991a"/><path d="M158.629 10.5006c-.2.0003-.3962.0552-.5695.1595-.3512.2157-.5678.6097-.5702 1.0369v30.5072c0 .2996-.133.5679-.38.7179s-.5514.1509-.7985 0l-4.7509-2.8708c-.7048-.4283-1.5746-.4283-2.2803 0l-18.9643 11.4848c-.7084.4288-1.1406 1.2546-1.1406 2.1131v22.9701c-.0011.8553.4335 1.6464 1.1401 2.073l18.9648 11.4856a2.179 2.179 0 0 0 2.2803 0l18.9648-11.4856c.7066-.4266 1.1421-1.2177 1.1411-2.073V19.3534c0-.8712-.4532-1.6885-1.1786-2.1133l-11.2874-6.6203c-.1778-.1037-.3737-.1221-.5708-.1197zM36.6306 39.1734c-.3621.0155-.7016.0815-1.0264.2792L16.6398 50.9372c-.7073.4263-1.1417 1.2176-1.1398 2.0734l.0383 30.8271c0 .4289.2115.8272.571 1.0365a1.06 1.06 0 0 0 1.1398 0l11.2492-6.7795c.7131-.4434 1.1781-1.217 1.1781-2.0729V61.6249c0-.8591.4306-1.6463 1.1415-2.0728l4.7881-2.9111c.3469-.2112.7397-.3214 1.1407-.3191s.7943.1078 1.1404.3191l4.7862 2.909c.71.427 1.1398 1.2154 1.1398 2.0733v14.3962c0 .8567.4757 1.635 1.178 2.0727l11.2501 6.7796c.3536.222.7897.222 1.14 0 .3482-.2104.5699-.608.5699-1.036l.0379-30.8261c.0045-.8567-.4303-1.6488-1.1397-2.0734L37.8848 39.4521c-.3204-.1972-.6613-.2639-1.0263-.2795h-.2269zm170.4181.2792a2.187 2.187 0 0 0-1.1402.3192L186.9434 51.257c-.7075.4295-1.1405 1.2151-1.1405 2.0729v22.9702c0 .8634.463 1.6461 1.1777 2.0728l18.812 11.2514c.6947.4155 1.5425.4471 2.2427.0387l11.4016-6.6603c.3618-.2101.6063-.6034.6079-1.0362s-.2135-.8215-.5707-1.0363l-19.0794-11.4853c-.3569-.2139-.608-.6469-.608-1.0768v-7.1829c0-.429.2536-.8224.608-1.0363l5.9288-3.5895c.3526-.2137.7856-.2137 1.1408 0l5.9313 3.5895c.3539.213.571.6088.5703 1.0363v5.6629c-.0009.4277.2163.8233.5704 1.0363s.7853.2165 1.1405 0l11.3629-6.9371c.7056-.4304 1.1408-1.2181 1.1408-2.0731v-5.5427c.0001-.8553-.4342-1.6457-1.1404-2.0733l-18.851-11.4853c-.3461-.2104-.74-.3207-1.1402-.3192zM150.3435 56.601c.1066-.0001.2106.0271.3041.0793l6.4993 3.9481c.1765.1069.3038.3047.3038.5181v7.8961c0 .2143-.1263.4114-.3038.5183l-6.4993 3.948c-.1764.1049-.3924.1049-.57 0l-6.4989-3.948c-.1766-.1071-.3042-.3048-.3042-.5183v-7.8969c0-.2139.1281-.4104.3042-.5184l6.4989-3.9477c.0884-.0534.1669-.079.2659-.079v-.0005z" stroke="#fff" fill="#404137" stroke-width=".2179"/><path d="M93.6014 39.3322c-.4-.0004-.7939.1099-1.1408.3196L73.4958 51.097c-.7087.4288-1.1398 1.2556-1.1398 2.1134v22.9698c-.0018.8557.4328 1.6474 1.1398 2.0732l18.9648 11.485a2.176 2.176 0 0 0 2.2802 0l18.9648-11.485c.707-.4271 1.1421-1.2177 1.1412-2.0735V53.2102c0-.8592-.4314-1.6849-1.1415-2.1136l-18.9648-11.445c-.3466-.2111-.7405-.3214-1.1409-.3197zm113.4099 20.4987c-.0756 0-.1588 0-.2278.0386l-3.6488 2.2336c-.1378.0803-.2247.2321-.2279.3984v4.3871c0 .1649.0913.3154.2279.3988l3.6488 2.1933c.128.0831.2897.0831.4168 0l3.649-2.1933c.1352-.0816.2278-.2339.2278-.3988v-4.3871c0-.165-.0923-.3155-.2278-.3986l-3.649-2.2337c-.067-.0428-.1138-.0394-.1898-.0394z" fill="#00991a"/></g></svg>