<svg xmlns="http://www.w3.org/2000/svg" width="301" height="101" stroke="#000" stroke-linecap="round" stroke-linejoin="round" fill="#fff" fill-rule="evenodd"><rect x=".5" y=".5" width="300" height="100" fill="#262626" rx="15" stroke="#fff"/><path d="M61.0932 48.9362c0-4.8464 3.8327-8.7476 8.5932-8.7476s8.5929 3.9012 8.5929 8.7476-3.8325 8.7474-8.5929 8.7474-8.5932-3.9019-8.5932-8.7474z" stroke="none" fill="#00d8ff"/><g stroke="#00d8ff" stroke-linejoin="miter" fill="none" stroke-width="1.6627"><path d="M69.6866 31.1508c11.5372 0 22.2544 1.6855 30.3364 4.5169 9.7366 3.4127 15.723 8.5848 15.723 13.2686 0 4.8802-6.3451 10.3753-16.8003 13.9016-7.9051 2.6662-18.3075 4.0581-29.2591 4.0581-11.2286 0-21.8614-1.3068-29.8556-4.0876-10.1141-3.5185-16.2056-9.0848-16.2056-13.8721 0-4.6457 5.716-9.7779 15.3156-13.1847 8.1118-2.8788 19.0939-4.6008 30.7438-4.6008z"/><path d="M54.4767 40.0947c5.7639-10.1737 12.5524-18.7833 18.9998-24.4946 7.7677-6.882 15.1601-9.5769 19.1451-7.2374 4.1537 2.4385 5.6599 10.7784 3.4375 21.76-1.6787 8.303-5.6924 18.1714-11.1637 27.829-5.61 9.902-12.0331 18.6256-18.3925 24.2839-8.0471 7.161-15.8267 9.7527-19.9009 7.3604-3.9536-2.3186-5.4654-9.9246-3.5689-20.0924 1.6027-8.5907 5.624-19.1354 11.4423-29.409z"/><path d="M54.4911 57.9779c-5.7796-10.1627-9.7151-20.4513-11.3577-28.9894-1.9775-10.2875-.5792-18.1532 3.4024-20.4994 4.1493-2.4455 11.9996.3912 20.2359 7.8361 6.2271 5.6283 12.6219 14.0948 18.1091 23.7439 5.6257 9.892 9.8421 19.914 11.4823 28.3482 2.0755 10.6737.396 18.829-3.6743 21.2278-3.9494 2.3271-11.1768-.1372-18.883-6.8876-6.511-5.7037-13.4772-14.5165-19.3147-24.7803z"/></g><path d="M165.0706 71.2851l-10.5325-16.1988c5.3234-.478 10.1195-4.4041 10.1195-11.5771 0-7.2989-5.0881-11.97-12.226-11.97h-15.6751v39.7152h4.8559V55.4742h7.7801l9.944 15.7802zm-13.2202-20.127h-10.2359v-15.184h10.2359c4.6232 0 7.781 3.0952 7.781 7.563s-3.1598 7.626-7.781 7.626zm31.2958 20.8391c4.6234 0 8.4233-1.548 11.2323-4.4048l-2.107-2.9192c-2.2249 2.323-5.4981 3.6319-8.7151 3.6319-6.0819 0-9.8279-4.5257-10.1785-9.9418h22.8697v-1.1322c0-8.6329-5.0315-15.423-13.574-15.423-8.072 0-13.9192 6.73-13.9192 15.0652 0 8.9929 6.0251 15.101 14.389 15.101zm8.7767-16.913h-18.543c.2352-4.4048 3.2141-9.5891 9.2422-9.5891 6.4353 0 9.2414 5.3002 9.3008 9.5891zm33.4617 16.1981V51.513c0-6.9668-4.9697-9.7078-10.9382-9.7078-4.6229 0-8.2478 1.548-11.2889 4.7642l2.0476 3.0959c2.5143-2.7381 5.2658-3.9891 8.6584-3.9891 4.0939 0 7.1371 2.2021 7.1371 6.073v5.1799c-2.282-2.6808-5.4981-3.9317-9.3602-3.9317-4.7965 0-9.8895 3.0379-9.8895 9.4687 0 6.2513 5.088 9.5283 9.8895 9.5283 3.8025 0 7.0215-1.3691 9.3602-3.9891v3.2719zm-12.1642-2.5019c-4.0945 0-6.9623-2.6172-6.9623-6.2513 0-3.6927 2.8678-6.3127 6.9623-6.3127 3.1001 0 6.082 1.1908 7.7802 3.5739v5.4189c-1.6955 2.381-4.6801 3.574-7.7802 3.574zm33.3776 3.2168c5.1475 0 8.1881-2.1441 10.3539-5.001l-2.9244-2.7381c-1.8719 2.5592-4.27 3.75-7.1704 3.75-6.0252 0-9.7655-4.7647-9.7655-11.1348s3.743-11.074 9.7655-11.074c2.9253 0 5.3234 1.1329 7.1704 3.75l2.9244-2.7381c-2.1629-2.859-5.2064-5.0009-10.3539-5.0009-8.4235 0-14.0981 6.5511-14.0981 15.0659 0 8.5749 5.6746 15.1009 14.0981 15.1009zm23.6361 0c2.5709 0 4.1533-.7751 5.2658-1.845l-1.2854-3.3349c-.5859.6548-1.731 1.1908-2.9841 1.1908-1.9284 0-2.8684-1.5479-2.8684-3.692V46.4513h5.7364v-3.929h-5.7364v-7.86h-4.3884v7.86h-4.6801v3.9318h4.6801v18.8181c0 4.2889 2.1064 6.73 6.2605 6.73z" stroke="none" fill="#00d8ff"/></svg>